<svg id="svg" version="1.1" xmlns="http://www.w3.org/2000/svg" xmlns:xlink="http://www.w3.org/1999/xlink" width="400" height="400" viewBox="0, 0, 400,400"><g id="svgg"><path id="path0" d="M39.750 189.875 L 39.750 246.500 49.250 246.500 L 58.750 246.500 58.750 222.875 L 58.750 199.250 73.000 199.250 L 87.250 199.250 87.250 189.875 C 87.250 181.115,87.221 180.500,86.813 180.496 C 86.572 180.493,80.159 180.492,72.563 180.493 L 58.750 180.495 58.750 166.123 L 58.750 151.750 87.188 151.750 L 115.625 151.750 115.582 150.938 C 115.558 150.491,115.530 146.328,115.519 141.688 L 115.500 133.250 77.625 133.250 L 39.750 133.250 39.750 189.875 M134.750 189.875 L 134.750 246.500 163.311 246.500 L 191.873 246.500 201.186 237.189 L 210.500 227.878 210.500 189.875 L 210.500 151.872 201.186 142.561 L 191.873 133.250 163.311 133.250 L 134.750 133.250 134.750 189.875 M229.500 189.875 L 229.500 246.500 239.000 246.500 L 248.500 246.500 248.500 222.872 L 248.500 199.243 256.646 199.309 L 264.792 199.375 272.033 216.500 C 276.015 225.919,279.379 233.850,279.510 234.125 C 279.640 234.400,280.863 237.269,282.228 240.500 L 284.709 246.375 302.042 246.435 L 319.375 246.496 321.196 244.362 C 322.198 243.189,324.785 240.022,326.946 237.324 C 329.107 234.626,331.775 231.319,332.875 229.975 C 336.510 225.535,339.116 222.335,339.798 221.474 C 340.168 221.007,340.731 220.303,341.048 219.908 C 341.365 219.514,343.131 217.321,344.972 215.033 C 346.812 212.746,348.370 210.819,348.434 210.750 C 348.498 210.681,348.944 211.075,349.425 211.625 C 350.660 213.036,361.568 225.954,363.375 228.145 C 364.200 229.146,364.941 229.973,365.021 229.982 C 365.171 230.000,370.720 223.191,371.260 222.327 C 371.518 221.914,371.276 221.393,369.484 218.487 C 366.160 213.100,365.537 212.084,363.131 208.125 C 361.877 206.063,360.107 203.179,359.198 201.717 L 357.545 199.059 362.936 192.342 C 371.335 181.879,370.971 182.500,369.968 180.357 C 368.419 177.049,363.783 174.528,361.498 175.751 C 361.239 175.890,358.308 179.405,354.983 183.564 C 347.610 192.787,348.498 191.834,347.606 191.484 C 347.204 191.326,342.319 189.643,336.750 187.744 C 331.181 185.845,325.829 184.014,324.855 183.675 C 323.447 183.185,323.038 183.125,322.855 183.380 C 322.729 183.557,321.251 185.399,319.572 187.472 C 316.628 191.108,316.539 191.253,317.072 191.530 C 317.376 191.688,318.525 192.296,319.625 192.880 C 320.725 193.464,323.762 195.065,326.375 196.438 C 338.493 202.808,339.500 203.350,339.498 203.500 C 339.497 203.569,335.606 208.463,330.851 214.375 C 326.096 220.287,321.352 226.194,320.308 227.500 C 319.264 228.806,318.346 229.931,318.267 230.000 C 318.188 230.069,317.489 230.912,316.714 231.875 C 315.939 232.838,315.057 233.885,314.754 234.203 L 314.202 234.781 307.320 234.703 L 300.439 234.625 297.585 227.750 C 296.015 223.969,294.232 219.694,293.623 218.250 C 293.014 216.806,290.994 211.969,289.134 207.500 L 285.753 199.375 288.568 196.625 C 292.162 193.113,302.470 183.225,304.188 181.641 L 305.500 180.432 305.500 166.152 L 305.500 151.872 296.186 142.561 L 286.873 133.250 258.186 133.250 L 229.500 133.250 229.500 189.875 M187.810 155.685 L 191.750 159.619 191.750 189.744 L 191.750 219.869 187.815 223.810 L 183.881 227.750 168.690 227.750 L 153.500 227.750 153.500 189.917 C 153.500 169.108,153.575 152.008,153.667 151.917 C 153.758 151.825,160.591 151.750,168.851 151.750 L 183.869 151.750 187.810 155.685 M282.565 155.633 L 286.500 159.515 286.500 166.080 L 286.500 172.645 282.543 176.575 L 278.586 180.504 263.605 180.439 L 248.625 180.375 248.560 166.375 C 248.524 158.675,248.549 152.234,248.615 152.063 C 248.709 151.817,251.954 151.750,263.682 151.750 L 278.630 151.750 282.565 155.633 " stroke="none" fill="#fb5c04" fill-rule="evenodd"></path><path id="path1" d="M0.000 200.000 L 0.000 400.000 200.000 400.000 L 400.000 400.000 400.000 200.000 L 400.000 0.000 200.000 0.000 L 0.000 0.000 0.000 200.000 M115.777 142.558 L 115.782 151.875 87.266 151.939 L 58.750 152.002 58.750 166.126 L 58.750 180.250 73.063 180.250 L 87.375 180.250 87.323 189.812 L 87.272 199.375 73.011 199.440 L 58.750 199.504 58.750 223.002 L 58.750 246.500 49.125 246.500 L 39.500 246.500 39.500 189.917 C 39.500 158.796,39.547 133.286,39.604 133.229 C 39.661 133.172,56.823 133.151,77.740 133.183 L 115.772 133.241 115.777 142.558 M201.494 142.481 L 210.750 151.727 210.750 189.818 L 210.750 227.908 201.455 237.204 L 192.161 246.500 163.330 246.500 L 134.500 246.500 134.500 189.917 C 134.500 158.796,134.547 133.286,134.604 133.229 C 134.662 133.172,147.653 133.149,163.473 133.179 L 192.238 133.234 201.494 142.481 M296.434 142.559 L 305.750 151.872 305.750 166.141 L 305.750 180.409 303.869 182.175 C 302.834 183.146,299.431 186.415,296.306 189.438 C 293.182 192.461,289.591 195.913,288.327 197.109 C 286.674 198.673,286.070 199.401,286.176 199.704 C 286.395 200.330,289.544 207.972,291.757 213.250 C 292.823 215.794,294.513 219.844,295.512 222.250 C 296.511 224.656,297.773 227.694,298.316 229.000 C 298.858 230.306,299.550 231.994,299.853 232.750 L 300.403 234.125 302.514 234.250 C 303.675 234.319,306.810 234.375,309.481 234.375 L 314.336 234.375 316.449 231.875 C 317.612 230.500,318.986 228.813,319.504 228.125 C 320.022 227.438,320.654 226.650,320.910 226.375 C 321.166 226.099,322.355 224.637,323.552 223.125 C 324.749 221.612,327.111 218.649,328.802 216.540 C 330.492 214.431,332.156 212.337,332.500 211.888 C 333.702 210.316,338.107 204.870,338.671 204.258 C 339.366 203.504,339.480 203.612,336.125 201.869 C 334.613 201.083,333.262 200.358,333.125 200.257 C 332.988 200.157,331.019 199.112,328.750 197.937 C 326.481 196.761,323.837 195.382,322.875 194.872 C 318.500 192.552,316.367 191.411,316.277 191.339 C 316.223 191.297,317.714 189.355,319.591 187.024 L 323.002 182.786 328.064 184.536 C 335.583 187.136,346.240 190.755,347.338 191.081 C 348.256 191.354,348.328 191.332,348.906 190.621 C 349.240 190.211,349.650 189.710,349.817 189.508 C 349.985 189.306,351.394 187.562,352.948 185.633 C 354.502 183.703,355.951 181.911,356.167 181.649 C 356.384 181.388,357.564 179.903,358.791 178.350 C 360.017 176.797,361.269 175.448,361.573 175.351 C 365.021 174.255,370.579 178.374,370.592 182.036 C 370.596 183.135,370.463 183.362,368.111 186.284 C 366.744 187.981,365.324 189.765,364.956 190.248 C 364.588 190.730,362.875 192.869,361.150 195.000 C 359.425 197.131,358.010 198.988,358.007 199.125 C 358.004 199.262,359.098 201.143,360.438 203.304 C 361.778 205.465,363.059 207.547,363.283 207.929 C 363.921 209.017,366.663 213.496,369.324 217.798 C 370.658 219.956,371.750 221.832,371.750 221.968 C 371.750 222.338,365.241 230.290,365.010 230.202 C 364.822 230.129,361.797 226.640,357.875 221.971 C 356.913 220.825,355.447 219.097,354.618 218.131 C 353.790 217.165,352.106 215.160,350.877 213.674 L 348.642 210.974 347.758 212.032 C 347.273 212.614,344.931 215.516,342.555 218.482 C 335.728 227.005,335.480 227.309,334.984 227.750 C 334.752 227.956,332.458 230.769,329.887 234.000 C 327.317 237.231,325.024 240.100,324.794 240.375 C 324.563 240.650,323.929 241.438,323.385 242.125 C 322.841 242.813,322.066 243.713,321.663 244.125 C 321.261 244.537,320.652 245.241,320.311 245.688 L 319.691 246.500 302.089 246.500 L 284.488 246.500 284.239 245.813 C 284.102 245.434,283.887 244.900,283.760 244.625 C 283.550 244.166,282.483 241.654,279.246 234.000 C 278.578 232.419,277.362 229.550,276.544 227.625 C 274.063 221.784,271.638 216.057,270.138 212.500 C 269.355 210.644,268.570 208.787,268.394 208.375 C 268.217 207.963,267.297 205.797,266.349 203.563 L 264.625 199.502 256.688 199.501 L 248.750 199.500 248.750 223.000 L 248.750 246.500 239.125 246.500 L 229.500 246.500 229.500 189.813 L 229.500 133.125 258.309 133.185 L 287.118 133.246 296.434 142.559 M153.750 189.875 L 153.750 227.750 168.704 227.750 L 183.658 227.750 187.577 223.813 L 191.496 219.875 191.498 189.747 L 191.500 159.619 187.685 155.809 L 183.869 152.000 168.810 152.000 L 153.750 152.000 153.750 189.875 M248.750 166.125 L 248.750 180.250 263.690 180.250 L 278.631 180.250 282.565 176.310 L 286.500 172.369 286.500 166.109 L 286.500 159.848 282.591 155.924 L 278.682 152.000 263.716 152.000 L 248.750 152.000 248.750 166.125 " stroke="none" fill="#fbfbfb" fill-rule="evenodd"></path><path id="path2" d="M248.617 166.125 C 248.617 173.963,248.649 177.133,248.687 173.170 C 248.726 169.207,248.726 162.794,248.687 158.920 C 248.649 155.045,248.617 158.287,248.617 166.125 M305.617 166.125 C 305.617 173.963,305.649 177.133,305.687 173.170 C 305.726 169.207,305.726 162.794,305.687 158.920 C 305.649 155.045,305.617 158.287,305.617 166.125 M248.620 223.000 C 248.620 235.994,248.650 241.309,248.687 234.812 C 248.725 228.316,248.725 217.684,248.687 211.187 C 248.650 204.691,248.620 210.006,248.620 223.000 " stroke="none" fill="#fbb88e" fill-rule="evenodd"></path><path id="path3" d="M39.623 189.875 C 39.623 220.950,39.652 233.625,39.687 218.042 C 39.723 202.460,39.723 177.035,39.687 161.542 C 39.652 146.050,39.623 158.800,39.623 189.875 M280.500 153.828 C 280.500 153.871,280.866 154.237,281.313 154.641 L 282.125 155.375 281.391 154.563 C 280.706 153.805,280.500 153.635,280.500 153.828 M284.240 157.563 C 284.853 158.216,285.387 158.750,285.427 158.750 C 285.615 158.750,285.416 158.526,284.313 157.490 L 283.125 156.375 284.240 157.563 M298.363 187.313 L 297.375 188.375 298.438 187.387 C 299.426 186.468,299.615 186.250,299.426 186.250 C 299.385 186.250,298.907 186.728,298.363 187.313 M290.987 194.438 L 290.125 195.375 291.063 194.513 C 291.935 193.712,292.115 193.500,291.924 193.500 C 291.882 193.500,291.460 193.922,290.987 194.438 M327.750 217.750 C 327.314 218.300,327.014 218.750,327.083 218.750 C 327.152 218.750,327.564 218.300,328.000 217.750 C 328.436 217.200,328.736 216.750,328.667 216.750 C 328.598 216.750,328.186 217.200,327.750 217.750 M189.618 221.813 L 187.875 223.625 189.688 221.882 C 191.371 220.263,191.614 220.000,191.431 220.000 C 191.393 220.000,190.577 220.816,189.618 221.813 M185.750 225.625 C 184.726 226.656,183.944 227.500,184.013 227.500 C 184.081 227.500,184.976 226.656,186.000 225.625 C 187.024 224.594,187.806 223.750,187.737 223.750 C 187.669 223.750,186.774 224.594,185.750 225.625 M301.444 234.433 C 302.032 234.486,302.932 234.485,303.444 234.432 C 303.956 234.378,303.475 234.335,302.375 234.336 C 301.275 234.337,300.856 234.381,301.444 234.433 " stroke="none" fill="#fbdec9" fill-rule="evenodd"></path><path id="path4" d="M115.612 141.750 C 115.612 146.494,115.646 148.434,115.687 146.063 C 115.728 143.691,115.728 139.809,115.687 137.438 C 115.646 135.066,115.612 137.006,115.612 141.750 M134.623 189.875 C 134.623 221.088,134.652 233.893,134.687 218.333 C 134.723 202.772,134.723 177.234,134.687 161.583 C 134.652 145.931,134.623 158.662,134.623 189.875 M201.187 142.500 L 210.498 151.876 210.563 189.875 L 210.627 227.875 210.688 189.874 L 210.750 151.872 201.313 142.499 L 191.875 133.125 201.187 142.500 M72.938 151.937 C 80.809 151.974,93.691 151.974,101.563 151.937 C 109.434 151.901,102.994 151.871,87.250 151.871 C 71.506 151.871,65.066 151.901,72.938 151.937 M153.615 152.063 C 153.550 152.234,153.526 169.363,153.562 190.125 L 153.627 227.875 153.688 189.938 L 153.750 152.000 168.816 152.000 L 183.881 152.000 187.690 155.814 L 191.498 159.629 191.563 189.877 L 191.627 220.125 191.689 189.872 L 191.750 159.619 187.810 155.685 L 183.869 151.750 168.802 151.750 C 156.978 151.750,153.709 151.817,153.615 152.063 M256.188 151.937 C 260.347 151.976,267.153 151.976,271.313 151.937 C 275.472 151.899,272.069 151.867,263.750 151.867 C 255.431 151.867,252.028 151.899,256.188 151.937 M362.563 175.422 C 362.803 175.485,363.197 175.485,363.438 175.422 C 363.678 175.359,363.481 175.308,363.000 175.308 C 362.519 175.308,362.322 175.359,362.563 175.422 M66.063 180.437 C 69.741 180.476,75.759 180.476,79.438 180.437 C 83.116 180.398,80.106 180.366,72.750 180.366 C 65.394 180.366,62.384 180.398,66.063 180.437 M256.205 180.437 C 260.375 180.476,267.125 180.476,271.205 180.437 C 275.286 180.399,271.875 180.367,263.625 180.367 C 255.375 180.367,252.036 180.399,256.205 180.437 M301.866 183.813 L 300.625 185.125 301.938 183.884 C 302.659 183.202,303.250 182.611,303.250 182.572 C 303.250 182.385,303.018 182.593,301.866 183.813 M295.366 190.063 L 294.125 191.375 295.438 190.134 C 296.159 189.452,296.750 188.861,296.750 188.822 C 296.750 188.635,296.518 188.843,295.366 190.063 M288.993 196.188 L 287.375 197.875 289.063 196.257 C 289.991 195.367,290.750 194.608,290.750 194.570 C 290.750 194.386,290.495 194.620,288.993 196.188 M66.312 199.437 C 70.128 199.476,76.372 199.476,80.187 199.437 C 84.003 199.399,80.881 199.367,73.250 199.367 C 65.619 199.367,62.497 199.399,66.312 199.437 M251.250 199.428 C 258.480 199.604,264.943 199.608,264.837 199.438 C 264.773 199.334,261.043 199.274,256.548 199.304 C 252.053 199.333,249.669 199.389,251.250 199.428 M348.271 210.813 C 348.328 210.847,348.712 211.156,349.125 211.500 L 349.875 212.125 349.269 211.438 C 348.936 211.059,348.551 210.750,348.415 210.750 C 348.278 210.750,348.214 210.778,348.271 210.813 M334.609 227.813 L 333.875 228.625 334.688 227.891 C 335.445 227.206,335.615 227.000,335.422 227.000 C 335.379 227.000,335.013 227.366,334.609 227.813 M209.109 229.313 L 208.375 230.125 209.188 229.391 C 209.634 228.987,210.000 228.621,210.000 228.578 C 210.000 228.385,209.794 228.555,209.109 229.313 M207.109 231.313 L 206.375 232.125 207.188 231.391 C 207.634 230.987,208.000 230.621,208.000 230.578 C 208.000 230.385,207.794 230.555,207.109 231.313 M304.548 234.687 C 306.293 234.730,309.218 234.730,311.048 234.687 C 312.878 234.644,311.450 234.609,307.875 234.609 C 304.300 234.609,302.803 234.644,304.548 234.687 M201.109 237.313 L 200.375 238.125 201.188 237.391 C 201.634 236.987,202.000 236.621,202.000 236.578 C 202.000 236.385,201.794 236.555,201.109 237.313 M195.109 243.313 L 194.375 244.125 195.188 243.391 C 195.634 242.987,196.000 242.621,196.000 242.578 C 196.000 242.385,195.794 242.555,195.109 243.313 M193.109 245.313 L 192.375 246.125 193.188 245.391 C 193.634 244.987,194.000 244.621,194.000 244.578 C 194.000 244.385,193.794 244.555,193.109 245.313 " stroke="none" fill="#faa47c" fill-rule="evenodd"></path></g></svg>